<mxfile host="app.diagrams.net" agent="Mozilla/5.0 (Macintosh; Intel Mac OS X 10_15_7) AppleWebKit/537.36 (KHTML, like Gecko) Chrome/135.0.0.0 Safari/537.36" version="26.2.14">
  <diagram name="Page-1" id="wGtibNRsmG5wOhDM8mzO">
    <mxGraphModel>
      <root>
        <mxCell id="0" />
        <mxCell id="1" parent="0" />
        <mxCell id="2" value="API Communication" style="whiteSpace=wrap;strokeWidth=2;" vertex="1" parent="1">
          <mxGeometry x="242" y="870" width="424" height="485" as="geometry" />
        </mxCell>
        <mxCell id="3" value="Authentication Flow" style="whiteSpace=wrap;strokeWidth=2;" vertex="1" parent="1">
          <mxGeometry x="283" y="439" width="246" height="231" as="geometry" />
        </mxCell>
        <mxCell id="4" value="User Interaction" style="whiteSpace=wrap;strokeWidth=2;" vertex="1" parent="1">
          <mxGeometry x="271" y="8" width="328" height="358" as="geometry" />
        </mxCell>
        <mxCell id="5" value="User" style="whiteSpace=wrap;strokeWidth=2;" vertex="1" parent="1">
          <mxGeometry x="431" y="33" width="92" height="54" as="geometry" />
        </mxCell>
        <mxCell id="6" value="Angular Application" style="whiteSpace=wrap;strokeWidth=2;" vertex="1" parent="1">
          <mxGeometry x="306" y="160" width="199" height="54" as="geometry" />
        </mxCell>
        <mxCell id="7" value="Login Form" style="whiteSpace=wrap;strokeWidth=2;" vertex="1" parent="1">
          <mxGeometry x="336" y="287" width="139" height="54" as="geometry" />
        </mxCell>
        <mxCell id="8" value="Active Directory" style="whiteSpace=wrap;strokeWidth=2;" vertex="1" parent="1">
          <mxGeometry x="318" y="464" width="176" height="54" as="geometry" />
        </mxCell>
        <mxCell id="9" value="Token Issued" style="whiteSpace=wrap;strokeWidth=2;" vertex="1" parent="1">
          <mxGeometry x="331" y="591" width="150" height="54" as="geometry" />
        </mxCell>
        <mxCell id="10" value="Angular Application" style="whiteSpace=wrap;strokeWidth=2;" vertex="1" parent="1">
          <mxGeometry x="378" y="743" width="199" height="54" as="geometry" />
        </mxCell>
        <mxCell id="11" value="Dotnet Backend API" style="whiteSpace=wrap;strokeWidth=2;" vertex="1" parent="1">
          <mxGeometry x="377" y="895" width="200" height="54" as="geometry" />
        </mxCell>
        <mxCell id="12" value="Authorization Middleware" style="whiteSpace=wrap;strokeWidth=2;" vertex="1" parent="1">
          <mxGeometry x="277" y="1022" width="244" height="54" as="geometry" />
        </mxCell>
        <mxCell id="13" value="Authenticated User" style="whiteSpace=wrap;strokeWidth=2;" vertex="1" parent="1">
          <mxGeometry x="8" y="1149" width="199" height="54" as="geometry" />
        </mxCell>
        <mxCell id="14" value="Business Logic" style="whiteSpace=wrap;strokeWidth=2;" vertex="1" parent="1">
          <mxGeometry x="432" y="1276" width="161" height="54" as="geometry" />
        </mxCell>
        <mxCell id="15" value="Database" style="whiteSpace=wrap;strokeWidth=2;" vertex="1" parent="1">
          <mxGeometry x="450" y="1428" width="126" height="54" as="geometry" />
        </mxCell>
        <mxCell id="16" value="Accesses" style="curved=1;startArrow=none;endArrow=block;exitX=0.17;exitY=1;entryX=0.5;entryY=0;" edge="1" parent="1" source="5" target="6">
          <mxGeometry relative="1" as="geometry">
            <Array as="points">
              <mxPoint x="406" y="124" />
            </Array>
          </mxGeometry>
        </mxCell>
        <mxCell id="17" value="Initiates Sign In" style="curved=1;startArrow=none;endArrow=block;exitX=0.5;exitY=1;entryX=0.5;entryY=0;" edge="1" parent="1" source="6" target="7">
          <mxGeometry relative="1" as="geometry">
            <Array as="points" />
          </mxGeometry>
        </mxCell>
        <mxCell id="18" value="Enters Credentials" style="curved=1;startArrow=none;endArrow=block;exitX=0.5;exitY=1;entryX=0.5;entryY=0;" edge="1" parent="1" source="7" target="8">
          <mxGeometry relative="1" as="geometry">
            <Array as="points" />
          </mxGeometry>
        </mxCell>
        <mxCell id="19" value="Validates User" style="curved=1;startArrow=none;endArrow=block;exitX=0.5;exitY=1;entryX=0.5;entryY=0;" edge="1" parent="1" source="8" target="9">
          <mxGeometry relative="1" as="geometry">
            <Array as="points" />
          </mxGeometry>
        </mxCell>
        <mxCell id="20" value="Returns JWT" style="curved=1;startArrow=none;endArrow=block;exitX=0.5;exitY=1;entryX=0.35;entryY=0;" edge="1" parent="1" source="9" target="10">
          <mxGeometry relative="1" as="geometry">
            <Array as="points">
              <mxPoint x="406" y="707" />
            </Array>
          </mxGeometry>
        </mxCell>
        <mxCell id="21" value="Includes JWT in Header" style="curved=1;startArrow=none;endArrow=block;exitX=0.21;exitY=1;entryX=0.15;entryY=0;" edge="1" parent="1" source="10" target="11">
          <mxGeometry relative="1" as="geometry">
            <Array as="points">
              <mxPoint x="340" y="834" />
              <mxPoint x="340" y="870" />
            </Array>
          </mxGeometry>
        </mxCell>
        <mxCell id="22" value="Receives Request" style="curved=1;startArrow=none;endArrow=block;exitX=0.33;exitY=1;entryX=0.5;entryY=0;" edge="1" parent="1" source="11" target="12">
          <mxGeometry relative="1" as="geometry">
            <Array as="points">
              <mxPoint x="399" y="986" />
            </Array>
          </mxGeometry>
        </mxCell>
        <mxCell id="23" value="Validates JWT" style="curved=1;startArrow=none;endArrow=block;exitX=0.5;exitY=1;entryX=1;entryY=0.1;" edge="1" parent="1" source="12" target="13">
          <mxGeometry relative="1" as="geometry">
            <Array as="points">
              <mxPoint x="399" y="1113" />
            </Array>
          </mxGeometry>
        </mxCell>
        <mxCell id="24" value="Processes Request" style="curved=1;startArrow=none;endArrow=block;exitX=1;exitY=0.9;entryX=0.2;entryY=0;" edge="1" parent="1" source="13" target="14">
          <mxGeometry relative="1" as="geometry">
            <Array as="points">
              <mxPoint x="399" y="1240" />
            </Array>
          </mxGeometry>
        </mxCell>
        <mxCell id="25" value="Queries Database" style="curved=1;startArrow=none;endArrow=block;exitX=0.06;exitY=1;entryX=0.03;entryY=0;" edge="1" parent="1" source="14" target="15">
          <mxGeometry relative="1" as="geometry">
            <Array as="points">
              <mxPoint x="375" y="1355" />
              <mxPoint x="375" y="1392" />
            </Array>
          </mxGeometry>
        </mxCell>
        <mxCell id="26" value="Returns Data" style="curved=1;startArrow=none;endArrow=block;exitX=0.75;exitY=0;entryX=0.74;entryY=1;" edge="1" parent="1" source="15" target="14">
          <mxGeometry relative="1" as="geometry">
            <Array as="points">
              <mxPoint x="588" y="1392" />
              <mxPoint x="588" y="1355" />
            </Array>
          </mxGeometry>
        </mxCell>
        <mxCell id="27" value="Returns Response" style="curved=1;startArrow=none;endArrow=block;exitX=0.61;exitY=0;entryX=0.67;entryY=1;" edge="1" parent="1" source="14" target="11">
          <mxGeometry relative="1" as="geometry">
            <Array as="points">
              <mxPoint x="556" y="1240" />
              <mxPoint x="556" y="986" />
            </Array>
          </mxGeometry>
        </mxCell>
        <mxCell id="28" value="Sends Response back" style="curved=1;startArrow=none;endArrow=block;exitX=0.79;exitY=0;entryX=0.73;entryY=1;" edge="1" parent="1" source="11" target="10">
          <mxGeometry relative="1" as="geometry">
            <Array as="points">
              <mxPoint x="588" y="870" />
              <mxPoint x="588" y="834" />
            </Array>
          </mxGeometry>
        </mxCell>
        <mxCell id="29" value="Updates UI" style="curved=1;startArrow=none;endArrow=block;exitX=0.65;exitY=0;entryX=0.83;entryY=1;" edge="1" parent="1" source="10" target="5">
          <mxGeometry relative="1" as="geometry">
            <Array as="points">
              <mxPoint x="549" y="707" />
              <mxPoint x="549" y="124" />
            </Array>
          </mxGeometry>
        </mxCell>
      </root>
    </mxGraphModel>
  </diagram>
</mxfile>
